<svg width="102" height="32" style="display:block">

<path d="M 29.3864 22.7101 C 29.2429 22.3073 29.0752 21.9176 28.9157 21.5565 C 28.6701 21.0011 28.4129 20.4446 28.1641 19.9067 L 28.1444 19.864 C 25.9255 15.0589 23.5439 10.1881 21.0659 5.38701 L 20.9607 5.18316 C 20.7079 4.69289 20.4466 4.18596 20.1784 3.68786 C 19.8604 3.0575 19.4745 2.4636 19.0276 1.91668 C 18.5245 1.31651 17.8956 0.833822 17.1853 0.502654 C 16.475 0.171486 15.7005 -0.0000983959 14.9165 4.23317e-8 C 14.1325 0.0000984805 13.3581 0.171877 12.6478 0.503224 C 11.9376 0.834571 11.3088 1.31742 10.8059 1.91771 C 10.3595 2.46476 9.97383 3.05853 9.65572 3.68858 C 9.38521 4.19115 9.12145 4.70278 8.8664 5.19757 L 8.76872 5.38696 C 6.29061 10.1884 3.90903 15.0592 1.69015 19.8639 L 1.65782 19.9338 C 1.41334 20.463 1.16057 21.0102 0.919073 21.5563 C 0.75949 21.9171 0.592009 22.3065 0.448355 22.7103 C 0.0369063 23.8104 -0.094204 24.9953 0.0668098 26.1585 C 0.237562 27.334 0.713008 28.4447 1.44606 29.3804 C 2.17911 30.3161 3.14434 31.0444 4.24614 31.4932 C 5.07835 31.8299 5.96818 32.002 6.86616 32 C 7.14824 31.9999 7.43008 31.9835 7.71027 31.9509 C 8.846 31.8062 9.94136 31.4366 10.9321 30.8639 C 12.2317 30.1338 13.5152 29.0638 14.9173 27.5348 C 16.3194 29.0638 17.6029 30.1338 18.9025 30.8639 C 19.8932 31.4367 20.9886 31.8062 22.1243 31.9509 C 22.4045 31.9835 22.6864 31.9999 22.9685 32 C 23.8664 32.002 24.7561 31.8299 25.5883 31.4932 C 26.6901 31.0444 27.6554 30.3161 28.3885 29.3804 C 29.1216 28.4447 29.5971 27.3341 29.7679 26.1585 C 29.9287 24.9952 29.7976 23.8103 29.3864 22.7101 Z M 14.9173 24.377 C 13.1816 22.1769 12.0678 20.1338 11.677 18.421 C 11.5169 17.7792 11.4791 17.1131 11.5656 16.4573 C 11.6339 15.9766 11.8105 15.5176 12.0821 15.1148 C 12.4163 14.6814 12.8458 14.3304 13.3374 14.0889 C 13.829 13.8475 14.3696 13.7219 14.9175 13.7219 C 15.4655 13.722 16.006 13.8476 16.4976 14.0892 C 16.9892 14.3307 17.4186 14.6817 17.7528 15.1151 C 18.0244 15.5181 18.201 15.9771 18.2693 16.4579 C 18.3556 17.114 18.3177 17.7803 18.1573 18.4223 C 17.7661 20.1349 16.6526 22.1774 14.9173 24.377 Z M 27.7406 25.8689 C 27.6212 26.6908 27.2887 27.4674 26.7762 28.1216 C 26.2636 28.7759 25.5887 29.2852 24.8183 29.599 C 24.0393 29.9111 23.1939 30.0217 22.3607 29.9205 C 21.4946 29.8089 20.6599 29.5239 19.9069 29.0824 C 18.7501 28.4325 17.5791 27.4348 16.2614 25.9712 C 18.3591 23.3846 19.669 21.0005 20.154 18.877 C 20.3723 17.984 20.4196 17.0579 20.2935 16.1475 C 20.1791 15.3632 19.8879 14.615 19.4419 13.9593 C 18.9194 13.2519 18.2378 12.6768 17.452 12.2805 C 16.6661 11.8842 15.798 11.6777 14.9175 11.6777 C 14.0371 11.6777 13.1689 11.8841 12.383 12.2803 C 11.5971 12.6765 10.9155 13.2515 10.393 13.9589 C 9.94707 14.6144 9.65591 15.3624 9.5414 16.1465 C 9.41524 17.0566 9.4623 17.9822 9.68011 18.8749 C 10.1648 20.9993 11.4748 23.384 13.5732 25.9714 C 12.2555 27.4348 11.0845 28.4325 9.92769 29.0825 C 9.17468 29.5239 8.34007 29.809 7.47395 29.9205 C 6.64065 30.0217 5.79525 29.9111 5.0162 29.599 C 4.24581 29.2852 3.57092 28.7759 3.05838 28.1217 C 2.54585 27.4674 2.21345 26.6908 2.09411 25.8689 C 1.97932 25.0334 2.07701 24.1825 2.37818 23.3946 C 2.49266 23.0728 2.62663 22.757 2.7926 22.3818 C 3.0274 21.851 3.27657 21.3115 3.51759 20.7898 L 3.54996 20.7197 C 5.75643 15.9419 8.12481 11.0982 10.5894 6.32294 L 10.6875 6.13283 C 10.9384 5.64601 11.1979 5.14267 11.4597 4.6563 C 11.7101 4.15501 12.0132 3.68171 12.3639 3.2444 C 12.6746 2.86903 13.0646 2.56681 13.5059 2.35934 C 13.9473 2.15186 14.4291 2.04426 14.9169 2.04422 C 15.4047 2.04418 15.8866 2.15171 16.3279 2.35911 C 16.7693 2.56651 17.1593 2.86867 17.4701 3.24399 C 17.821 3.68097 18.1242 4.15411 18.3744 4.65538 C 18.6338 5.13742 18.891 5.63623 19.1398 6.11858 L 19.2452 6.32315 C 21.7097 11.0979 24.078 15.9415 26.2847 20.7201 L 26.3046 20.7631 C 26.5498 21.2936 26.8033 21.8419 27.042 22.382 C 27.2082 22.7577 27.3424 23.0738 27.4566 23.3944 C 27.7576 24.1824 27.8553 25.0333 27.7406 25.8689 Z fill: currentcolor;"></path></svg>